<?xml version="1.0" standalone="no"?>
<!DOCTYPE svg PUBLIC "-//W3C//DTD SVG 20010904//EN"
 "http://www.w3.org/TR/2001/REC-SVG-20010904/DTD/svg10.dtd">
<svg version="1.0" xmlns="http://www.w3.org/2000/svg"
 width="265.000000pt" height="265.000000pt" viewBox="0 0 265.000000 265.000000"
 preserveAspectRatio="xMidYMid meet">
<metadata>
Created by potrace 1.14, written by Peter Selinger 2001-2017
</metadata>
<g transform="translate(0.000000,265.000000) scale(0.100000,-0.100000)"
fill="#000000" stroke="none">
<path d="M2192 1886 c-13 -7 -31 -25 -42 -40 -14 -23 -20 -25 -26 -14 -8 13
-15 12 -53 -4 l-43 -20 5 -46 c14 -120 79 -279 153 -379 l39 -51 50 5 c27 3
52 7 54 9 2 2 -10 20 -26 41 -82 107 -143 231 -138 282 4 45 31 66 59 48 23
-16 21 -13 75 -125 38 -79 114 -196 143 -219 7 -6 35 -9 65 -6 l53 6 -40 47
c-63 76 -119 176 -162 289 -67 179 -100 214 -166 177z"/>
<path d="M1420 1744 c-41 -20 -93 -44 -116 -54 l-41 -19 9 -61 c17 -124 58
-266 105 -366 18 -38 19 -39 68 -36 28 2 53 6 57 10 3 4 -1 23 -11 42 -27 57
-64 150 -60 154 2 2 40 -23 84 -56 157 -117 152 -115 220 -102 33 7 62 12 65
13 3 1 -27 22 -66 49 -38 26 -96 67 -127 92 -56 44 -56 44 -37 63 39 36 52 67
55 130 5 110 -33 177 -99 177 -17 0 -65 -16 -106 -36z m99 -115 c17 -51 -2
-85 -62 -108 l-52 -19 -6 22 c-3 11 -9 40 -12 62 l-7 42 48 19 c57 24 78 20
91 -18z"/>
<path d="M1908 1763 c-35 -14 -37 -18 -33 -47 11 -62 38 -162 56 -204 26 -60
30 -89 13 -103 -22 -18 -63 -2 -85 34 -21 34 -64 167 -74 229 l-6 37 -47 -18
c-54 -22 -55 -24 -21 -151 36 -135 83 -196 179 -234 52 -21 129 -23 159 -4 25
15 39 53 34 92 -2 16 -22 71 -44 124 -21 52 -47 133 -56 179 -9 45 -21 83 -27
82 -6 -1 -28 -8 -48 -16z"/>
<path d="M1110 1458 c-143 -66 -188 -185 -99 -264 68 -60 213 -58 283 3 14 13
26 26 26 31 0 7 -72 42 -87 42 -3 0 -14 -7 -24 -16 -18 -16 -61 -21 -95 -10
-27 8 -48 48 -39 75 10 31 61 60 95 54 26 -4 32 1 50 37 12 23 19 44 16 47
-11 12 -102 12 -126 1z"/>
<path d="M761 1324 c-125 -33 -208 -140 -157 -206 50 -66 250 -58 320 11 20
20 20 20 -14 35 -31 13 -37 12 -61 -4 -31 -23 -74 -32 -112 -24 -31 6 -25 22
10 28 47 10 189 49 195 55 11 10 -30 88 -50 96 -45 19 -82 21 -131 9z m46 -65
c27 -11 27 -12 -42 -34 -38 -12 -72 -21 -74 -19 -11 10 52 56 86 64 1 0 14 -5
30 -11z"/>
<path d="M330 1256 c-99 -35 -204 -78 -214 -87 -4 -4 3 -22 17 -41 33 -43 47
-81 51 -138 2 -25 7 -45 12 -44 5 1 31 7 58 14 l48 13 -4 54 c-3 29 -3 53 -2
53 11 0 123 -46 141 -57 18 -12 32 -13 80 -3 101 21 103 19 -41 80 l-50 21 29
15 c77 40 88 108 22 133 -42 16 -75 13 -147 -13z m77 -62 c6 -18 -15 -35 -68
-54 -29 -11 -56 -20 -60 -20 -6 0 -32 51 -27 55 2 1 26 11 53 22 49 19 95 18
102 -3z"/>
<path d="M1325 1092 c-71 -24 -114 -77 -122 -152 -12 -117 98 -211 217 -185
17 4 51 26 75 48 51 50 67 111 44 179 -27 84 -131 137 -214 110z m93 -63 c36
-12 72 -64 72 -103 0 -99 -126 -151 -195 -81 -53 52 -36 152 30 181 37 16 54
17 93 3z"/>
<path d="M1330 970 c-11 -11 -20 -31 -20 -45 0 -14 9 -34 20 -45 11 -11 31
-20 45 -20 14 0 34 9 45 20 11 11 20 31 20 45 0 14 -9 34 -20 45 -11 11 -31
20 -45 20 -14 0 -34 -9 -45 -20z"/>
</g>
</svg>
